<svg xmlns="http://www.w3.org/2000/svg" version="1.1" xmlns:xlink="http://www.w3.org/1999/xlink" xmlns:svgjs="http://svgjs.dev/svgjs" width="1440" height="560" preserveAspectRatio="none" viewBox="0 0 1440 560"><g mask="url(&quot;#SvgjsMask1019&quot;)" fill="none"><rect width="1440" height="560" x="0" y="0" fill="rgba(49, 49, 49, 1)"></rect><path d="M 0,272 C 57.6,234.8 172.8,84.8 288,86 C 403.2,87.2 460.8,271.8 576,278 C 691.2,284.2 748.8,128.8 864,117 C 979.2,105.2 1036.8,239.4 1152,219 C 1267.2,198.6 1382.4,55.8 1440,15L1440 560L0 560z" fill="rgba(34, 34, 34, 1)"></path><path d="M 0,394 C 96,421.8 288,532.8 480,533 C 672,533.2 768,397.4 960,395 C 1152,392.6 1344,495.8 1440,521L1440 560L0 560z" fill="rgba(72, 65, 81, 1)"></path></g><defs><mask id="SvgjsMask1019"><rect width="1440" height="560" fill="#ffffff"></rect></mask></defs></svg>